<svg width="503" height="335" viewBox="0 0 503 335" fill="none" xmlns="http://www.w3.org/2000/svg">
<g clip-path="url(#clip0_2_1373)">
<path d="M239.045 170.893H216.965L218.663 152.795H236.214L239.045 170.893Z" fill="#A0616A"/>
<path opacity="0.1" d="M239.045 170.893H216.965L218.663 152.795H236.214L239.045 170.893Z" fill="black"/>
<path d="M73.9546 103.047C83.9406 103.047 92.0358 94.9597 92.0358 84.9839C92.0358 75.0081 83.9406 66.9211 73.9546 66.9211C63.9686 66.9211 55.8734 75.0081 55.8734 84.9839C55.8734 94.9597 63.9686 103.047 73.9546 103.047Z" fill="#A4E0F3"/>
<path d="M155.474 320.849C155.576 321.712 155.605 322.517 155.547 323.307H112.059C111.664 322.517 111.327 321.697 111.034 320.849C105.717 305.587 114.461 280.185 103.374 242.522C95.1418 214.574 79.777 192.714 72.6145 182.53C63.8115 170.004 53.8368 158.445 42.2801 139.979C39.7755 135.984 37.1976 131.653 34.5318 126.927C33.6383 125.346 23.3413 107.012 24.2788 106.442C24.7182 106.178 27.4425 109.88 28.3653 111.124C36.5091 122.127 41.2402 126.941 48.0219 134.857C52.1377 139.657 57.0006 145.583 63.8262 154.728C81.3296 178.154 90.0739 189.86 93.1205 198.625C93.9261 200.966 98.2177 213.638 106.303 229.353C110.434 237.371 112.499 241.381 113.627 241.059C116.82 240.137 112.513 206.936 98.9794 173.75C96.6651 168.102 94.9368 164.488 91.6558 157.655C86.3242 146.505 56.6344 84.5369 34.8101 47.4441C32.0711 42.7763 29.4493 38.5183 27.0325 34.7871C26.5637 34.0848 26.1097 33.397 25.6703 32.7386C22.6236 28.2025 19.9286 24.6176 17.6875 22.3058C16.5011 21.0766 13.4838 17.5941 7.43452 10.5999C5.03236 7.81975 3.27468 5.75663 2.08826 4.24947C1.9125 4.03004 1.75141 3.81052 1.61964 3.62029C0.184152 1.7474 -0.225926 0.840117 0.110932 0.357316C0.594314 -0.330449 2.45444 0.0646488 4.49042 0.78162C4.71017 0.854765 4.94449 0.942553 5.16422 1.03034C7.37597 1.84975 9.61694 2.91796 10.364 3.28378C17.2188 6.57604 23.9126 12.4728 30.1083 19.4817C32.4079 22.0716 34.6197 24.8078 36.7582 27.6173C43.6423 36.6893 49.6477 46.5661 54.1883 54.6871C59.7542 64.6955 63.0938 72.0556 63.0938 72.0556C78.6344 106.339 95.8742 145.554 96.7823 145.217C97.7783 144.851 78.6637 96.038 73.0978 69.5242C71.2376 60.6424 70.9008 54.2627 73.3468 53.0336C73.4347 52.9897 73.5226 52.9458 73.6251 52.9165C74.006 52.7848 74.3575 52.7994 74.5479 52.8141C74.5479 52.8141 76.8182 52.5214 79.2057 53.0336C82.1791 53.6774 85.5626 61.9446 88.8582 73.548C97.4268 103.456 105.571 155.46 105.571 155.46C113.714 207.478 126.077 249.575 129.006 249.107C130.632 248.843 128.303 235.776 130.471 213.989C131.994 198.713 133.722 199.181 139.259 171.555C148.047 127.732 152.442 105.827 152.442 105.71C152.398 104.788 152.281 102.93 152.559 100.998C152.852 98.9059 153.599 96.711 155.371 95.4673C158.066 93.5651 162.402 94.3845 164.159 95.4673C165.565 96.3452 166.283 97.9548 166.444 100.267C167.411 114.811 146.495 156.981 139.259 213.989C135.656 242.39 133.679 257.886 139.259 278.371C144.781 298.681 154.404 311.616 155.474 320.849H155.474Z" fill="#F2F2F2"/>
<path d="M347.526 320.849C347.424 321.712 347.395 322.517 347.453 323.307H390.941C391.336 322.517 391.673 321.697 391.966 320.849C397.283 305.587 388.539 280.185 399.626 242.522C407.858 214.574 423.223 192.714 430.386 182.53C439.189 170.004 449.163 158.445 460.72 139.979C463.225 135.984 465.802 131.653 468.468 126.927C469.362 125.346 479.659 107.012 478.721 106.442C478.282 106.178 475.557 109.88 474.635 111.124C466.491 122.127 461.76 126.941 454.978 134.857C450.862 139.657 445.999 145.583 439.174 154.728C421.67 178.154 412.926 189.86 409.88 198.625C409.074 200.966 404.782 213.638 396.697 229.353C392.567 237.371 390.501 241.381 389.373 241.059C386.18 240.137 390.487 206.936 404.021 173.75C406.335 168.102 408.063 164.488 411.344 157.655C416.676 146.505 446.366 84.5369 468.19 47.4441C470.929 42.7764 473.551 38.5183 475.968 34.7871C476.436 34.0848 476.89 33.397 477.33 32.7386C480.376 28.2025 483.071 24.6176 485.312 22.3058C486.499 21.0766 489.516 17.5941 495.565 10.5999C497.968 7.81975 499.725 5.75664 500.912 4.24947C501.088 4.03004 501.249 3.81051 501.38 3.62029C502.816 1.7474 503.226 0.840115 502.889 0.357314C502.406 -0.33045 500.546 0.064653 498.51 0.781618C498.29 0.854764 498.056 0.942552 497.836 1.03034C495.624 1.84975 493.383 2.91796 492.636 3.28377C485.781 6.57604 479.087 12.4728 472.892 19.4817C470.592 22.0716 468.38 24.8078 466.242 27.6173C459.358 36.6893 453.352 46.5661 448.812 54.6871C443.246 64.6955 439.906 72.0556 439.906 72.0556C424.366 106.339 407.126 145.554 406.218 145.217C405.222 144.851 424.336 96.038 429.902 69.5242C431.762 60.6424 432.099 54.2627 429.653 53.0336C429.565 52.9897 429.477 52.9458 429.375 52.9165C428.994 52.7848 428.643 52.7994 428.452 52.8141C428.452 52.8141 426.182 52.5214 423.794 53.0336C420.821 53.6774 417.437 61.9446 414.142 73.548C405.573 103.456 397.429 155.46 397.429 155.46C389.286 207.478 376.923 249.575 373.994 249.106C372.368 248.843 374.697 235.776 372.529 213.989C371.006 198.713 369.278 199.181 363.741 171.555C354.953 127.732 350.558 105.827 350.558 105.71C350.602 104.788 350.72 102.93 350.441 100.998C350.148 98.9058 349.401 96.711 347.629 95.4673C344.934 93.5651 340.598 94.3845 338.841 95.4673C337.435 96.3452 336.717 97.9548 336.556 100.267C335.589 114.811 356.505 156.981 363.741 213.989C367.344 242.39 369.321 257.886 363.741 278.371C358.219 298.681 348.596 311.616 347.526 320.849L347.526 320.849Z" fill="#F2F2F2"/>
<path d="M404.302 322.538C404.302 322.8 404.089 323.013 403.827 323.013H74.2153V322.063H403.827C404.089 322.063 404.302 322.275 404.302 322.538Z" fill="#E6E6E6"/>
<path d="M207.362 302.4L211.073 319.034L222.691 317.422L219.463 300.336L207.362 302.4Z" fill="#A0616A"/>
<path d="M269.645 302.4L265.934 319.034L254.316 317.422L257.544 300.336L269.645 302.4Z" fill="#A0616A"/>
<path d="M291.617 264.185L270.708 200.558C266.03 186.324 252.73 176.702 237.733 176.702H237.733C221.053 176.702 206.731 188.557 203.632 204.93L192.068 266.017C190.412 274.765 196.939 282.87 205.748 283.232V324.998H208.975V283.25H276.745V324.998H279.972V283.084C288.69 281.793 294.474 272.877 291.617 264.185Z" fill="#CCCCCC"/>
<path d="M248.346 220.868L208.975 222.158C208.975 222.158 194.131 248.593 220.27 252.14C246.41 255.686 269.323 251.817 270.291 240.534C271.259 229.25 263.191 220.546 248.346 220.868Z" fill="#2F2E41"/>
<path d="M216.398 223.77C216.398 223.77 201.553 225.382 200.262 229.573C198.971 233.764 198.326 252.14 198.326 252.14L204.135 305.333L220.593 303.399L217.043 252.462L236.083 248.271L216.398 223.77V223.77Z" fill="#2F2E41"/>
<path d="M213.171 311.458C213.171 311.458 208.287 308.234 207.018 309.685C205.748 311.136 198.971 318.228 198.971 318.228L187.031 325.643C187.031 325.643 176.704 335.314 191.226 334.992C205.748 334.67 213.171 330.302 213.171 330.302C213.171 330.302 227.047 330.156 226.725 326.288C226.402 322.419 221.719 312.28 221.719 312.28L213.171 311.458Z" fill="#2F2E41"/>
<path d="M260.609 223.77C260.609 223.77 275.454 225.382 276.745 229.573C278.036 233.764 278.681 252.14 278.681 252.14L272.872 305.333L256.414 303.399L259.964 252.462L240.924 248.271L260.609 223.77V223.77Z" fill="#2F2E41"/>
<path d="M263.836 311.458C263.836 311.458 268.72 308.234 269.99 309.685C271.259 311.136 278.036 318.228 278.036 318.228L289.976 325.643C289.976 325.643 300.303 335.314 285.781 334.992C271.259 334.67 263.836 330.302 263.836 330.302C263.836 330.302 249.96 330.156 250.283 326.288C250.605 322.419 255.288 312.28 255.288 312.28L263.836 311.458H263.836Z" fill="#2F2E41"/>
<path d="M236.729 161.55H217.995L203.812 167.997L207.039 210.552C207.039 210.552 203.017 223.49 207.932 224.274C212.848 225.059 239.956 229.895 247.378 225.704C254.8 221.513 261.255 222.803 261.255 222.803L252.541 166.385L236.729 161.55H236.729Z" fill="#3F3D56"/>
<path d="M227.854 159.777C237.478 159.777 245.28 151.982 245.28 142.368C245.28 132.753 237.478 124.959 227.854 124.959C218.23 124.959 210.428 132.753 210.428 142.368C210.428 151.982 218.23 159.777 227.854 159.777Z" fill="#A0616A"/>
<path d="M209.926 145.217L212.936 149.138L217.079 143.335C217.079 143.335 217.424 148.493 228.816 146.559C240.209 144.625 242.97 143.98 242.97 143.98L244.351 149.783C244.351 149.783 245.732 145.914 245.732 143.335C245.732 140.756 254.017 134.631 245.387 129.473C236.756 124.314 241.244 119.479 230.543 119.801C219.841 120.123 213.282 119.801 212.246 123.67C211.21 127.538 208.794 132.374 209.139 136.565C209.484 140.756 209.926 145.217 209.926 145.217Z" fill="#2F2E41"/>
<path d="M242.894 221.54C238.699 222.932 234.579 221.898 233.692 219.23C232.806 216.563 235.488 213.273 239.685 211.881C241.354 211.302 243.138 211.13 244.887 211.381L262.737 205.706L265.224 214.131L247.363 218.831C246.111 220.077 244.579 221.006 242.894 221.54Z" fill="#A0616A"/>
<path d="M161.103 202.697C157.086 200.853 154.783 197.288 155.958 194.734C157.133 192.181 161.342 191.606 165.36 193.451C166.975 194.166 168.395 195.257 169.502 196.633L186.423 204.661L182.483 212.514L166.22 203.766C164.453 203.823 162.699 203.456 161.103 202.697H161.103Z" fill="#A0616A"/>
<path d="M203.754 167.906C203.754 167.906 210.468 170.644 210.26 177.95C210.051 185.256 204.919 195.466 204.919 195.466C204.919 195.466 204.561 218.515 198.252 221.01C191.944 223.505 172.45 207.516 172.45 207.516L176.953 198.924L185.368 197.954L203.754 167.906Z" fill="#3F3D56"/>
<path d="M247.701 167.675C247.701 167.675 254.478 165.096 259.318 170.576C264.159 176.057 267.386 187.018 267.386 187.018C267.386 187.018 282.876 204.104 279.972 210.23C277.068 216.355 251.896 217.967 251.896 217.967L249.314 208.618L254.8 202.17L247.701 167.675Z" fill="#3F3D56"/>
<path d="M265.239 231.346H210.155C207.074 231.346 204.567 228.842 204.567 225.763V193.729C204.567 190.651 207.074 188.146 210.155 188.146H265.239C268.32 188.146 270.827 190.651 270.827 193.729V225.763C270.827 228.842 268.32 231.346 265.239 231.346Z" fill="#A4E0F3"/>
<path d="M119.977 219.509C118.613 218.794 116.462 221.783 115.299 221.088C114.14 220.395 115.871 217.186 115.219 212.692C115.101 211.881 114.36 206.774 112.3 206.326C108.394 205.476 103.185 222.113 97.2954 221.344C96.003 221.175 94.5405 220.151 90.5363 219.49C88.9434 219.227 88.0653 219.206 87.5519 219.732C86.8233 220.476 87.4654 221.67 87.9386 224.502C88.6482 228.749 87.7028 229.048 88.567 232.253C89.2085 234.633 90.0665 235.718 89.5022 236.379C88.7038 237.315 86.4701 235.748 85.324 236.717C84.1545 237.706 84.9067 240.669 85.8074 242.68C87.4976 246.453 90.2004 247.966 92.4047 249.949C94.8001 252.104 97.7268 255.822 99.437 262.584L112.441 323.154C110.048 310.556 104.088 275.651 102.421 262.343C101.94 258.501 101.575 254.528 103.939 251.416C106.214 248.421 110.744 246.584 115.2 242.103C115.72 241.579 117.15 240.104 116.749 238.976C116.417 238.044 115.136 238.198 114.813 237.332C114.38 236.171 116.334 234.951 118.008 232.272C119.188 230.384 119.629 228.731 120.009 227.309C120.123 226.88 121.794 220.461 119.977 219.509L119.977 219.509Z" fill="#F2F2F2"/>
<path d="M66.6502 288.444C65.9051 288.907 66.7534 290.824 66.0761 291.194C65.4012 291.562 64.3241 289.787 61.9279 288.81C61.4958 288.634 58.7727 287.524 57.958 288.405C56.4138 290.074 63.0842 297.429 61.0073 300.095C60.5516 300.68 59.6261 301.101 58.1463 302.874C57.5576 303.579 57.294 304.004 57.4038 304.407C57.5596 304.979 58.3311 305.008 59.859 305.594C62.1504 306.471 62.0247 307.021 63.8487 307.522C65.2028 307.894 65.9833 307.786 66.1455 308.254C66.3752 308.915 64.9606 309.558 65.1061 310.4C65.2545 311.259 66.9273 311.745 68.1751 311.883C70.5166 312.143 72.0395 311.255 73.6498 310.746C75.3998 310.193 78.0711 309.831 81.8867 310.944L115.397 322.044C108.517 319.583 89.6486 312.434 82.6292 309.411C80.6028 308.538 78.5458 307.571 77.6989 305.514C76.8835 303.534 77.2881 300.783 76.3722 297.305C76.2652 296.899 75.9531 295.773 75.2832 295.644C74.7293 295.538 74.4355 296.21 73.917 296.119C73.2214 295.996 73.1855 294.686 72.3527 293.092C71.7654 291.969 71.0805 291.275 70.4915 290.679C70.3139 290.499 67.6421 287.828 66.6502 288.444L66.6503 288.444H66.6502Z" fill="#F2F2F2"/>
<path d="M83.6126 282.611L80.6867 278.875L80.7046 278.445C80.7881 276.452 80.4255 274.78 79.6267 273.472C79.4998 273.264 79.3622 273.063 79.2222 272.857C78.6669 272.044 77.9765 271.033 77.7712 269.486C77.6585 268.622 77.548 266.53 78.9535 265.932C79.3297 265.767 79.6896 265.765 80.0031 265.828C80.0035 265.764 80.0049 265.699 80.0058 265.629C80.0298 264.772 80.1855 264.315 80.3356 263.875C80.4508 263.537 80.5701 263.188 80.6586 262.481C80.6975 262.171 80.7151 261.909 80.7302 261.688C80.7772 261.02 80.8709 260.201 81.6431 259.739C82.4855 259.273 83.3314 259.686 83.8918 259.958C84.8915 260.444 85.4764 260.878 85.8642 261.166C86.0056 261.272 86.1654 261.39 86.2273 261.419C86.7302 261.644 88.651 259.961 89.3776 259.332C91.0056 257.912 92.4144 256.684 93.7667 257.429C94.7347 257.961 95.0575 259.255 94.7483 261.378C94.6517 262.039 94.4672 262.61 94.2821 263.082C94.6734 263.077 95.0908 263.181 95.4481 263.528C96.2926 264.35 96.057 265.84 94.751 267.959C94.4277 268.487 93.9905 269.195 93.1975 269.894C92.8237 270.223 92.4582 270.473 92.1422 270.681C92.2502 270.871 92.3309 271.099 92.3453 271.376C92.3892 272.192 91.8761 272.909 90.7895 273.481C89.6041 274.128 88.5234 274.491 87.571 274.813C86.7399 275.095 86.0251 275.34 85.5528 275.676C84.6846 276.312 84.4312 277.476 84.1895 278.933L83.6126 282.611L83.6126 282.611V282.611Z" fill="#F2F2F2"/>
<path d="M70.959 257.432L68.0837 261.207L67.662 261.299C65.7114 261.724 64.1841 262.499 63.1205 263.602C62.9514 263.778 62.7913 263.962 62.6281 264.149C61.9815 264.892 61.178 265.815 59.7318 266.406C58.924 266.734 56.9261 267.372 55.9905 266.165C55.7356 265.844 55.642 265.496 55.6241 265.177C55.5616 265.193 55.4983 265.208 55.4302 265.225C54.5943 265.419 54.1125 265.385 53.6483 265.351C53.2916 265.326 52.9235 265.299 52.2166 265.393C51.9065 265.434 51.6482 265.484 51.4308 265.525C50.7722 265.649 49.9546 265.766 49.3114 265.137C48.6473 264.441 48.832 263.519 48.9538 262.909C49.1709 261.819 49.4427 261.144 49.6232 260.696C49.6895 260.533 49.7633 260.348 49.7754 260.281C49.8659 259.738 47.7494 258.309 46.9559 257.766C45.1685 256.553 43.6218 255.503 44.0001 254.008C44.27 252.937 45.4403 252.297 47.5749 252.058C48.2395 251.983 48.839 252.017 49.3432 252.076C49.2385 251.699 49.2333 251.269 49.4786 250.836C50.0605 249.812 51.563 249.661 53.9466 250.386C54.5398 250.564 55.336 250.807 56.2144 251.396C56.6278 251.674 56.9617 251.964 57.2433 252.216C57.4 252.064 57.6007 251.928 57.8655 251.844C58.6437 251.594 59.4681 251.908 60.2983 252.813C61.2254 253.794 61.8512 254.747 62.4043 255.585C62.888 256.317 63.3064 256.946 63.7518 257.317C64.588 257.994 65.7794 257.944 67.2508 257.808L70.9591 257.432L70.959 257.432L70.959 257.432Z" fill="#F2F2F2"/>
<path d="M61.5775 246.895L58.6517 243.159L58.6696 242.729C58.7531 240.736 58.3904 239.064 57.5917 237.756C57.4647 237.548 57.3271 237.347 57.1871 237.141C56.6319 236.328 55.9414 235.318 55.7362 233.77C55.6235 232.906 55.513 230.814 56.9185 230.216C57.2946 230.051 57.6545 230.049 57.9681 230.113C57.9685 230.048 57.9699 229.983 57.9708 229.913C57.9948 229.056 58.1505 228.599 58.3006 228.159C58.4158 227.821 58.5351 227.472 58.6236 226.765C58.6625 226.455 58.68 226.193 58.6952 225.972C58.7422 225.304 58.8359 224.485 59.6081 224.023C60.4505 223.557 61.2964 223.97 61.8567 224.242C62.8565 224.728 63.4414 225.162 63.8292 225.45C63.9705 225.556 64.1304 225.674 64.1923 225.703C64.6952 225.928 66.616 224.245 67.3425 223.616C68.9706 222.197 70.3794 220.968 71.7316 221.713C72.6997 222.245 73.0225 223.539 72.7133 225.662C72.6166 226.323 72.4322 226.894 72.2471 227.366C72.6384 227.361 73.0558 227.465 73.4131 227.812C74.2576 228.634 74.0219 230.124 72.716 232.243C72.3927 232.771 71.9554 233.479 71.1625 234.178C70.7887 234.508 70.4232 234.757 70.1072 234.965C70.2151 235.155 70.2958 235.383 70.3103 235.66C70.3542 236.476 69.841 237.193 68.7544 237.765C67.5691 238.412 66.4884 238.776 65.536 239.097C64.7048 239.379 63.9901 239.624 63.5177 239.96C62.6496 240.596 62.3961 241.76 62.1544 243.217L61.5776 246.895L61.5775 246.895L61.5775 246.895Z" fill="#F2F2F2"/>
<path d="M113.746 322.261L112.579 322.252L111.776 321.407L112.579 322.252L111.667 322.969C111.595 322.887 111.412 322.711 111.13 322.433C109.584 320.909 104.875 316.273 98.4526 308.362C93.9693 302.839 89.7204 296.939 85.8217 290.823C81.917 284.698 79.3228 279.838 77.2371 275.932C75.6644 272.986 74.2132 270.153 72.8011 267.391C69.0265 260.015 65.4601 253.048 60.5297 245.939C59.4299 244.351 57.1389 241.048 52.8984 238.643C50.4387 237.248 47.6875 236.359 44.7219 236.003L45.0007 233.688C48.2757 234.083 51.3209 235.069 54.0521 236.617C58.7538 239.284 61.2501 242.883 62.4495 244.613C67.4667 251.847 71.0668 258.882 74.8774 266.329C76.2854 269.08 77.7294 271.902 79.2959 274.836C81.3621 278.705 83.9341 283.523 87.7888 289.569C91.6402 295.612 95.8376 301.44 100.264 306.894C106.606 314.705 111.244 319.271 112.768 320.772C113.581 321.573 113.752 321.741 113.746 322.261L113.746 322.261Z" fill="#F2F2F2"/>
<path d="M43.0243 241.399C42.9428 241.449 42.8592 241.498 42.7722 241.544C41.0246 242.494 38.8343 242.447 36.2618 241.405C35.0539 240.913 34.0883 240.099 32.1627 238.474C31.8652 238.224 30.3782 236.942 28.7197 234.939C27.6355 233.631 27.2913 233.016 27.2491 232.313C27.2009 231.529 27.4576 230.804 27.8608 230.174C27.7184 230 27.618 229.791 27.5773 229.541C27.4053 228.505 28.3723 228.06 28.8914 227.812C29.1569 227.691 29.4894 227.543 29.8104 227.321C30.3166 226.975 30.5012 226.647 30.7826 226.153C31.0514 225.68 31.3858 225.092 32.041 224.477C33.329 223.259 34.8257 222.915 35.3189 222.801C37.9082 222.194 39.9966 223.21 42.4143 224.387C42.8978 224.624 44.607 225.518 46.3539 227.111C47.6142 228.26 47.9405 228.915 48.1048 229.45C48.445 230.548 48.2026 231.446 47.476 233.546C46.7191 235.742 46.3383 236.843 45.9143 237.63C44.9254 239.461 44.3044 240.611 43.0243 241.399L43.0243 241.399H43.0243Z" fill="#F2F2F2"/>
<path d="M386.929 324.383L379.612 308.935L379.569 308.967V288.888H372.987V308.966L372.944 308.935L365.627 324.821C365.41 325.202 365.543 325.686 365.923 325.903C366.246 326.087 366.654 326.022 366.904 325.747L374.388 316.999L375.599 324.965C375.647 325.4 376.04 325.714 376.475 325.665C376.844 325.625 377.136 325.333 377.177 324.965L378.375 317.087L385.653 325.309C385.948 325.633 386.45 325.657 386.774 325.362C387.049 325.112 387.113 324.705 386.929 324.383Z" fill="#2F2E41"/>
<path d="M334.662 266.364C333.497 274.065 350.358 287.603 375.216 291.357C400.073 295.11 424.325 289.689 425.49 281.987C426.656 274.286 407.331 266.42 382.473 262.667C357.615 258.913 335.827 258.662 334.662 266.364Z" fill="#A4E0F3"/>
<path opacity="0.3" d="M334.662 266.364C333.497 274.065 350.358 287.603 375.216 291.357C400.073 295.11 424.325 289.689 425.49 281.987C426.656 274.286 407.331 266.42 382.473 262.667C357.615 258.913 335.827 258.662 334.662 266.364Z" fill="black"/>
<path d="M335.641 265.237C334.681 271.579 351.135 282.466 375.993 286.22C400.851 289.973 424.785 287.291 425.744 280.948C426.704 274.605 407.331 266.421 382.473 262.667C357.615 258.914 336.601 258.894 335.641 265.237H335.641Z" fill="#A4E0F3"/>
<path d="M391.931 170.946H299.056C295.318 170.946 292.276 167.907 292.276 164.172V94.0145C292.276 90.2797 295.318 87.2408 299.056 87.2408H391.931C395.67 87.2408 398.712 90.2797 398.712 94.0145V164.172C398.712 167.907 395.67 170.946 391.931 170.946Z" fill="white"/>
<path d="M391.931 170.946H299.056C295.318 170.946 292.276 167.907 292.276 164.172V94.0145C292.276 90.2797 295.318 87.2408 299.056 87.2408H391.931C395.67 87.2408 398.712 90.2797 398.712 94.0145V164.172C398.712 167.907 395.67 170.946 391.931 170.946ZM299.056 88.372C295.942 88.372 293.408 90.9033 293.408 94.0145V164.172C293.408 167.283 295.942 169.814 299.056 169.814H391.931C395.046 169.814 397.579 167.283 397.579 164.172V94.0145C397.579 90.9032 395.046 88.372 391.931 88.372H299.056Z" fill="#3F3D56"/>
<path d="M381.727 95.7244C382.665 95.7244 383.426 94.9648 383.426 94.0277C383.426 93.0906 382.665 92.331 381.727 92.331C380.789 92.331 380.029 93.0906 380.029 94.0277C380.029 94.9648 380.789 95.7244 381.727 95.7244Z" fill="#3F3D56"/>
<path d="M386.257 95.7244C387.195 95.7244 387.955 94.9648 387.955 94.0277C387.955 93.0906 387.195 92.331 386.257 92.331C385.319 92.331 384.558 93.0906 384.558 94.0277C384.558 94.9648 385.319 95.7244 386.257 95.7244Z" fill="#3F3D56"/>
<path d="M390.786 95.7244C391.724 95.7244 392.484 94.9648 392.484 94.0277C392.484 93.0906 391.724 92.331 390.786 92.331C389.848 92.331 389.087 93.0906 389.087 94.0277C389.087 94.9648 389.848 95.7244 390.786 95.7244Z" fill="#3F3D56"/>
<path d="M301.9 121.458C301.432 121.458 301.051 121.839 301.051 122.306C301.051 122.534 301.139 122.745 301.3 122.901C301.461 123.066 301.672 123.155 301.9 123.155H389.653C390.122 123.155 390.503 122.774 390.503 122.306C390.503 122.078 390.414 121.867 390.254 121.712C390.093 121.546 389.881 121.458 389.653 121.458H301.9Z" fill="#E6E6E6"/>
<path d="M373.801 121.175V123.438H301.9C301.589 123.438 301.306 123.313 301.102 123.104C300.893 122.9 300.768 122.617 300.768 122.306C300.768 121.684 301.278 121.175 301.9 121.175H373.801Z" fill="#A4E0F3"/>
<path d="M388.238 116.933H376.915C375.666 116.933 374.651 115.919 374.651 114.671C374.651 113.423 375.666 112.409 376.915 112.409H388.238C389.487 112.409 390.503 113.423 390.503 114.671C390.503 115.919 389.487 116.933 388.238 116.933Z" fill="#E6E6E6"/>
<path d="M314.073 105.056H302.75C301.501 105.056 300.485 104.042 300.485 102.794C300.485 101.546 301.501 100.532 302.75 100.532H314.073C315.321 100.532 316.337 101.546 316.337 102.794C316.337 104.042 315.321 105.056 314.073 105.056Z" fill="#E6E6E6"/>
<path d="M301.9 146.909C301.432 146.909 301.051 147.289 301.051 147.757C301.051 147.985 301.139 148.196 301.3 148.352C301.461 148.517 301.672 148.605 301.9 148.605H389.653C390.122 148.605 390.503 148.225 390.503 147.757C390.503 147.529 390.414 147.318 390.254 147.162C390.093 146.997 389.881 146.909 389.653 146.909H301.9Z" fill="#E6E6E6"/>
<path d="M330.208 146.626V148.888H301.9C301.589 148.888 301.306 148.764 301.102 148.555C300.893 148.351 300.768 148.068 300.768 147.757C300.768 147.135 301.278 146.626 301.9 146.626H330.208Z" fill="#A4E0F3"/>
<path d="M388.238 142.384H376.915C375.666 142.384 374.651 141.37 374.651 140.122C374.651 138.874 375.666 137.86 376.915 137.86H388.238C389.487 137.86 390.503 138.874 390.503 140.122C390.503 141.37 389.487 142.384 388.238 142.384Z" fill="#E6E6E6"/>
</g>
<defs>
<clipPath id="clip0_2_1373">
<rect width="503" height="335" fill="white"/>
</clipPath>
</defs>
</svg>
