<svg width="391" height="434" viewBox="0 0 391 434" fill="none" xmlns="http://www.w3.org/2000/svg">
<path d="M68.0861 384.696L34.6103 388.328L18.6001 377.43L9.33154 388.328L13.7804 411.324L18.8746 429.488L49.7638 413.826L74.6357 411.578L68.0861 384.696Z" fill="#A0616A"/>
<path d="M237.648 346.188L156.87 344.735L58.6254 386.149L71.7246 414.484L160.508 389.782L298.05 429.015L279.129 336.017L237.648 346.188Z" fill="#2F2E41"/>
<path d="M16.0835 387.344L32.1388 386.097L11.7171 343.025C11.7171 343.025 2.25651 339.689 0.801035 350.076C-0.654435 360.462 11.7599 430.787 15.3986 430.787C19.0373 430.787 31.246 423.676 31.246 423.676L13.1725 389.524L16.0835 387.344L16.0835 387.344L16.0835 387.344Z" fill="#2F2E41"/>
<path d="M388.245 375.551C386.629 375.724 384.866 375.985 382.991 376.366C375.039 377.983 374.874 383.373 374.944 384.609L374.89 384.575C374.09 385.856 373.59 387.151 373.287 388.374L372.923 371.854C373.158 371.363 373.373 370.808 373.551 370.238C374.146 372.068 375.122 373.797 375.963 373.682C377.057 373.533 377.534 370.321 377.33 368.037C378.72 369.826 381.061 371.738 381.944 371.148C382.649 370.677 382.231 368.737 381.461 366.974C383.066 367.939 384.843 368.573 385.395 367.96C386.148 367.124 384.344 364.27 382.681 362.676C384.907 362.884 387.739 362.529 387.924 361.518C388.077 360.684 386.392 359.632 384.588 358.955C386.4 358.478 388.094 357.647 388.038 356.825C387.971 355.848 385.456 355.194 383.286 355.094C384.923 353.816 386.427 352.049 385.967 351.249C385.544 350.515 383.577 350.799 381.762 351.446C382.836 349.913 383.591 348.186 383.016 347.595C382.3 346.858 379.758 348.13 378.023 349.534C378.36 347.346 378.19 344.583 377.206 344.333C376.384 344.124 375.218 345.731 374.419 347.482C374.065 345.644 373.35 343.9 372.525 343.9C371.349 343.9 370.396 347.44 370.396 349.745C370.396 349.876 370.399 349.999 370.405 350.116C370.287 349.979 370.152 349.836 369.998 349.687C368.341 348.08 365.134 346.297 364.314 347.139C363.739 347.731 364.494 349.458 365.568 350.991C363.754 350.344 361.787 350.059 361.364 350.794C360.796 351.781 363.224 354.246 365.198 355.441C365.079 355.427 364.955 355.415 364.822 355.406C362.518 355.249 358.916 355.958 358.836 357.129C358.78 357.951 360.474 358.782 362.286 359.259C360.482 359.936 358.797 360.988 358.95 361.821C359.135 362.833 361.967 363.187 364.194 362.98C362.53 364.573 360.727 367.428 361.479 368.264C362.031 368.877 363.809 368.243 365.414 367.277C364.643 369.041 364.225 370.981 364.93 371.452C365.863 372.075 368.42 369.907 369.768 368.042C369.631 370.324 370.178 373.458 371.263 373.582C371.716 373.634 372.197 373.15 372.631 372.407L371.402 390.165C371.115 392.233 372.952 393.582 373.116 394.434L373.382 406.46C373.082 405.603 372.679 404.726 372.136 403.857L372.082 403.89C372.152 402.654 371.987 397.264 364.036 395.648C362.16 395.266 360.397 395.006 358.781 394.832C356.874 394.627 356.13 397.234 357.853 398.077C360.349 399.296 362.696 400.833 363.92 402.652C367.048 407.304 371.371 404.615 371.985 404.197C372.672 405.338 373.122 406.488 373.406 407.581L373.547 413.967C373.513 414.118 373.489 414.203 373.487 414.209L373.553 414.229L373.893 429.684L377.053 429.659L375.923 413.861C376.113 413.009 376.697 410.106 375.923 407.091L374.793 394.678C374.857 395.004 374.79 394.669 374.793 394.678L373.318 389.801C373.533 388.292 374.03 386.595 375.041 384.916C375.655 385.333 379.978 388.022 383.106 383.37C384.33 381.551 386.678 380.014 389.173 378.795C390.897 377.953 390.153 375.346 388.245 375.551ZM373.81 412.117L373.751 409.414C373.871 410.436 373.865 411.359 373.81 412.117Z" fill="#69A753"/>
<path d="M347.536 181.987C341.498 179.707 341.86 176.253 333.709 171.815C330.214 169.912 327.425 168.393 323.521 168.183C316.634 167.811 311.384 171.787 307.511 174.722C301.871 178.994 298.884 183.787 297.323 186.346C294.703 190.639 293.494 194.221 292.228 197.971C290.367 203.487 289.654 207.617 288.59 213.955C287.001 223.416 286.207 228.146 287.134 232.119C288.854 239.486 292.639 239.998 292.228 244.471C291.535 252.027 280.537 252.728 279.129 260.455C277.962 266.864 284.035 274.578 290.773 277.166C294.863 278.736 298.628 278.2 308.966 274.986C336.391 266.46 340.792 260.626 349.719 263.361C354.797 264.917 357.574 268.09 365.002 268.447C369.752 268.675 375.483 267.707 375.918 265.541C376.471 262.786 367.837 261.17 367.185 256.096C366.501 250.771 375.503 248.614 375.918 242.291C376.324 236.096 367.877 235.239 363.546 225.58C361.368 220.722 361.609 214.107 362.091 200.877C362.463 190.668 363.454 186.718 360.636 184.167C357.465 181.296 354.252 184.523 347.536 181.987H347.536V181.987Z" fill="#2F2E41"/>
<path d="M294.686 249.303L302.691 222.42L325.979 221.694L335.439 255.115L294.686 249.303Z" fill="#A0616A"/>
<path opacity="0.1" d="M294.686 249.303L302.691 222.42L325.979 221.694L335.439 255.115L294.686 249.303Z" fill="black"/>
<path d="M330.434 245.561L292.592 244.108L280.859 268.193L262.755 374.887L357.724 396.321C357.724 396.321 363.546 277.166 350.447 260.455C337.348 243.744 330.434 245.561 330.434 245.561H330.434V245.561Z" fill="#E6E6E6"/>
<path d="M311.663 235.047C327.206 235.047 339.806 222.468 339.806 206.95C339.806 191.433 327.206 178.853 311.663 178.853C296.12 178.853 283.52 191.433 283.52 206.95C283.52 222.468 296.12 235.047 311.663 235.047Z" fill="#A0616A"/>
<path d="M324.523 230.412C325.939 228.951 332.01 227.38 330.168 223.706C329.562 222.5 327.999 221.676 326.725 221.835C324.311 222.137 323.668 225.879 322.598 225.737C321.185 225.549 320.784 218.825 320.613 211.601C320.334 199.86 320.941 198.631 319.435 196.828C318.05 195.17 317.044 195.623 301.54 193.247C296.306 192.445 294.6 192.114 292.06 192.856C287.229 194.267 285.416 197.793 283.51 196.966C281.675 196.169 281.235 191.979 282.285 188.773C283.785 184.193 288.239 181.888 291.348 180.334C299.286 176.366 305.039 177.657 305.936 174.744C306.608 172.562 303.472 171.532 303.179 167.102C302.865 162.351 306.165 158.913 306.375 158.7C308.449 156.604 310.828 155.959 311.862 155.692C313.311 155.318 315.01 154.879 317.007 155.569C317.406 155.707 319.868 156.598 321 158.968C322.08 161.23 321.109 163.081 321.931 163.468C322.865 163.908 324.058 161.496 327.418 160.46C328.127 160.241 329.123 159.944 330.395 160.08C333.063 160.365 334.744 162.318 335.196 162.843C336.37 164.207 336.742 165.55 337.487 168.236C337.871 169.619 338.312 171.255 338.333 173.458C338.347 174.937 338.359 176.282 337.819 177.787C337.819 177.787 336.94 180.234 331.903 184.403C331.903 184.403 334.012 182.314 335.051 182.581C336.829 183.037 343.728 185.361 347.117 192.057C348.649 195.085 349.647 194.617 350.853 197.621C351.137 198.328 353.215 203.735 350.927 209.336C349.178 213.619 346.872 213.123 345.563 217.48C344.938 219.563 345.47 219.658 344.621 225.417C344.133 228.728 339.824 226.093 339.078 227.506C338.574 228.461 346.154 256.513 342.036 260.399C338.002 264.205 320.34 234.73 324.523 230.412L324.523 230.412V230.412Z" fill="#2F2E41"/>
<path d="M219.604 162.008C218.027 153.597 212.401 147.592 207.04 148.595C201.679 149.599 198.613 157.229 200.192 165.642C200.777 169.012 202.161 172.192 204.23 174.918L211.364 210.47L225.439 207.617L219.203 172.117C220.144 168.827 220.281 165.361 219.604 162.008Z" fill="#A0616A"/>
<path d="M324.766 255.242L247.482 240.037L225.763 174.82L201.426 180.567L225.841 276.91L313.322 288.402L324.766 255.242Z" fill="#E6E6E6"/>
<path d="M217.421 271.03C217.282 271.166 217.153 271.308 217.015 271.445C195.46 250.09 160.747 249.903 138.961 271.022C117.098 292.225 116.36 327.032 137.303 349.141L137.29 349.154L137.811 349.691L214.935 428.971L294.882 351.451L294.66 351.222C294.794 351.095 294.934 350.976 295.067 350.847C317.144 329.44 317.658 294.219 296.217 272.179C274.776 250.138 239.498 249.624 217.421 271.03L217.421 271.03Z" fill="url(#paint0_linear_6_102)"/>
<path d="M353.358 383.243C353.358 383.243 367.913 417.391 351.903 425.383C335.892 433.375 292.039 439.914 281.218 425.383C270.396 410.852 266.758 344.009 266.758 344.009L231.826 392.688L212.177 380.336C212.177 380.336 235.465 298.236 255.114 293.877C274.763 289.517 327.16 341.829 327.16 341.829L353.358 383.243L353.358 383.243Z" fill="#2F2E41"/>
<path d="M220.91 375.977L205.628 391.235L184.524 402.133L186.707 421.023L226.732 416.664L231.826 406.492L230.371 397.774L233.282 383.969L220.91 375.977Z" fill="#A0616A"/>
<path d="M189.618 413.758L188.368 397.728L145.226 418.117C145.226 418.117 141.885 427.562 152.288 429.015C162.692 430.468 231.826 430.468 231.826 426.836C231.826 423.203 233.717 404.604 233.717 404.604L191.801 416.664L189.618 413.758H189.618H189.618Z" fill="#2F2E41"/>
<path d="M221.421 359.203C212.893 360.047 206.416 365.125 206.955 370.544C207.494 375.963 214.844 379.67 223.376 378.824C226.789 378.533 230.082 377.43 232.98 375.608L269.072 371.574L267.438 357.329L231.475 360.472C228.273 359.254 224.826 358.818 221.421 359.203Z" fill="#A0616A"/>
<path d="M237 45.5C237 70.629 216.629 111 191.5 111C166.371 111 146 70.629 146 45.5C146 20.371 166.371 0 191.5 0C216.629 0 237 20.371 237 45.5Z" fill="url(#paint1_linear_6_102)"/>
<path d="M323.521 262.635L301.689 338.196L234.737 354.18L238.376 378.883L336.62 362.899L355.625 276.875L323.521 262.635Z" fill="#E6E6E6"/>
<path d="M199.082 45.1501V48.5251C199.082 51.0212 197.043 53.0251 194.582 53.0251H189.801C188.008 53.0251 186.356 52.2166 185.301 50.8103L184.809 50.1072C184.563 49.8259 184.457 49.4744 184.457 49.0876V47.4001C184.457 46.908 184.668 46.4158 185.09 46.0994L186.145 45.2556V46.8376C186.145 47.1541 186.391 47.4001 186.707 47.4001C186.989 47.4001 187.27 47.1541 187.27 46.8376V43.4626C187.27 42.5486 188.008 41.7751 188.957 41.7751C189.871 41.7751 190.645 42.5486 190.645 43.4626V36.4314C190.645 35.658 191.243 35.0251 192.051 35.0251C192.825 35.0251 193.457 35.658 193.457 36.4314V43.1111C193.739 42.6541 194.266 42.3376 194.864 42.3376C195.672 42.3376 196.34 42.9353 196.516 43.7439C196.762 43.5681 197.043 43.4626 197.395 43.4626C198.309 43.4626 199.082 44.2361 199.082 45.1501ZM174.15 65.8451C173.683 65.8451 173.263 65.7651 172.89 65.6051C172.516 65.4385 172.223 65.2051 172.01 64.9051C171.796 64.6051 171.69 64.2551 171.69 63.8551H172.91C172.936 64.1551 173.053 64.4018 173.26 64.5951C173.473 64.7885 173.77 64.8851 174.15 64.8851C174.543 64.8851 174.85 64.7918 175.07 64.6051C175.29 64.4118 175.4 64.1651 175.4 63.8651C175.4 63.6318 175.33 63.4418 175.19 63.2951C175.056 63.1485 174.886 63.0351 174.68 62.9551C174.48 62.8751 174.2 62.7885 173.84 62.6951C173.386 62.5751 173.016 62.4551 172.73 62.3351C172.45 62.2085 172.21 62.0151 172.01 61.7551C171.81 61.4951 171.71 61.1485 171.71 60.7151C171.71 60.3151 171.81 59.9651 172.01 59.6651C172.21 59.3651 172.49 59.1351 172.85 58.9751C173.21 58.8151 173.626 58.7351 174.1 58.7351C174.773 58.7351 175.323 58.9051 175.75 59.2451C176.183 59.5785 176.423 60.0385 176.47 60.6251H175.21C175.19 60.3718 175.07 60.1551 174.85 59.9751C174.63 59.7951 174.34 59.7051 173.98 59.7051C173.653 59.7051 173.386 59.7885 173.18 59.9551C172.973 60.1218 172.87 60.3618 172.87 60.6751C172.87 60.8885 172.933 61.0651 173.06 61.2051C173.193 61.3385 173.36 61.4451 173.56 61.5251C173.76 61.6051 174.033 61.6918 174.38 61.7851C174.84 61.9118 175.213 62.0385 175.5 62.1651C175.793 62.2918 176.04 62.4885 176.24 62.7551C176.446 63.0151 176.55 63.3651 176.55 63.8051C176.55 64.1585 176.453 64.4918 176.26 64.8051C176.073 65.1185 175.796 65.3718 175.43 65.5651C175.07 65.7518 174.643 65.8451 174.15 65.8451ZM177.515 62.2851C177.515 61.6051 177.672 60.9951 177.985 60.4551C178.305 59.9151 178.735 59.4951 179.275 59.1951C179.822 58.8885 180.418 58.7351 181.065 58.7351C181.805 58.7351 182.462 58.9185 183.035 59.2851C183.615 59.6451 184.035 60.1585 184.295 60.8251H182.925C182.745 60.4585 182.495 60.1851 182.175 60.0051C181.855 59.8251 181.485 59.7351 181.065 59.7351C180.605 59.7351 180.195 59.8385 179.835 60.0451C179.475 60.2518 179.192 60.5485 178.985 60.9351C178.785 61.3218 178.685 61.7718 178.685 62.2851C178.685 62.7985 178.785 63.2485 178.985 63.6351C179.192 64.0218 179.475 64.3218 179.835 64.5351C180.195 64.7418 180.605 64.8451 181.065 64.8451C181.485 64.8451 181.855 64.7551 182.175 64.5751C182.495 64.3951 182.745 64.1218 182.925 63.7551H184.295C184.035 64.4218 183.615 64.9351 183.035 65.2951C182.462 65.6551 181.805 65.8351 181.065 65.8351C180.412 65.8351 179.815 65.6851 179.275 65.3851C178.735 65.0785 178.305 64.6551 177.985 64.1151C177.672 63.5751 177.515 62.9651 177.515 62.2851ZM188.799 65.8451C188.153 65.8451 187.556 65.6951 187.009 65.3951C186.469 65.0885 186.039 64.6651 185.719 64.1251C185.406 63.5785 185.249 62.9651 185.249 62.2851C185.249 61.6051 185.406 60.9951 185.719 60.4551C186.039 59.9151 186.469 59.4951 187.009 59.1951C187.556 58.8885 188.153 58.7351 188.799 58.7351C189.453 58.7351 190.049 58.8885 190.589 59.1951C191.136 59.4951 191.566 59.9151 191.879 60.4551C192.193 60.9951 192.349 61.6051 192.349 62.2851C192.349 62.9651 192.193 63.5785 191.879 64.1251C191.566 64.6651 191.136 65.0885 190.589 65.3951C190.049 65.6951 189.453 65.8451 188.799 65.8451ZM188.799 64.8551C189.259 64.8551 189.669 64.7518 190.029 64.5451C190.389 64.3318 190.669 64.0318 190.869 63.6451C191.076 63.2518 191.179 62.7985 191.179 62.2851C191.179 61.7718 191.076 61.3218 190.869 60.9351C190.669 60.5485 190.389 60.2518 190.029 60.0451C189.669 59.8385 189.259 59.7351 188.799 59.7351C188.339 59.7351 187.929 59.8385 187.569 60.0451C187.209 60.2518 186.926 60.5485 186.719 60.9351C186.519 61.3218 186.419 61.7718 186.419 62.2851C186.419 62.7985 186.519 63.2518 186.719 63.6451C186.926 64.0318 187.209 64.3318 187.569 64.5451C187.929 64.7518 188.339 64.8551 188.799 64.8551ZM197.961 58.8251V59.7551H196.111V65.7751H194.971V59.7551H193.111V58.8251H197.961ZM200.246 58.8251V63.2551C200.246 63.7818 200.382 64.1785 200.656 64.4451C200.936 64.7118 201.322 64.8451 201.816 64.8451C202.316 64.8451 202.702 64.7118 202.976 64.4451C203.256 64.1785 203.396 63.7818 203.396 63.2551V58.8251H204.536V63.2351C204.536 63.8018 204.412 64.2818 204.166 64.6751C203.919 65.0685 203.589 65.3618 203.176 65.5551C202.762 65.7485 202.306 65.8451 201.806 65.8451C201.306 65.8451 200.849 65.7485 200.436 65.5551C200.029 65.3618 199.706 65.0685 199.466 64.6751C199.226 64.2818 199.106 63.8018 199.106 63.2351V58.8251H200.246ZM208.31 65.8451C207.843 65.8451 207.423 65.7651 207.05 65.6051C206.677 65.4385 206.383 65.2051 206.17 64.9051C205.957 64.6051 205.85 64.2551 205.85 63.8551H207.07C207.097 64.1551 207.213 64.4018 207.42 64.5951C207.633 64.7885 207.93 64.8851 208.31 64.8851C208.703 64.8851 209.01 64.7918 209.23 64.6051C209.45 64.4118 209.56 64.1651 209.56 63.8651C209.56 63.6318 209.49 63.4418 209.35 63.2951C209.217 63.1485 209.047 63.0351 208.84 62.9551C208.64 62.8751 208.36 62.7885 208 62.6951C207.547 62.5751 207.177 62.4551 206.89 62.3351C206.61 62.2085 206.37 62.0151 206.17 61.7551C205.97 61.4951 205.87 61.1485 205.87 60.7151C205.87 60.3151 205.97 59.9651 206.17 59.6651C206.37 59.3651 206.65 59.1351 207.01 58.9751C207.37 58.8151 207.787 58.7351 208.26 58.7351C208.933 58.7351 209.483 58.9051 209.91 59.2451C210.343 59.5785 210.583 60.0385 210.63 60.6251H209.37C209.35 60.3718 209.23 60.1551 209.01 59.9751C208.79 59.7951 208.5 59.7051 208.14 59.7051C207.813 59.7051 207.547 59.7885 207.34 59.9551C207.133 60.1218 207.03 60.3618 207.03 60.6751C207.03 60.8885 207.093 61.0651 207.22 61.2051C207.353 61.3385 207.52 61.4451 207.72 61.5251C207.92 61.6051 208.193 61.6918 208.54 61.7851C209 61.9118 209.373 62.0385 209.66 62.1651C209.953 62.2918 210.2 62.4885 210.4 62.7551C210.607 63.0151 210.71 63.3651 210.71 63.8051C210.71 64.1585 210.613 64.4918 210.42 64.8051C210.233 65.1185 209.957 65.3718 209.59 65.5651C209.23 65.7518 208.803 65.8451 208.31 65.8451Z" fill="white"/>
<defs>
<linearGradient id="paint0_linear_6_102" x1="217.017" y1="255.305" x2="217.017" y2="428.971" gradientUnits="userSpaceOnUse">
<stop stop-color="#EF5050"/>
<stop offset="1" stop-color="#461010"/>
</linearGradient>
<linearGradient id="paint1_linear_6_102" x1="191.5" y1="0" x2="191.5" y2="111" gradientUnits="userSpaceOnUse">
<stop stop-color="#EF5050"/>
<stop offset="1" stop-color="#CF3838"/>
<stop offset="1" stop-color="#C13232"/>
</linearGradient>
</defs>
</svg>
