<svg width="27" height="21" viewBox="0 0 27 21" fill="none" xmlns="http://www.w3.org/2000/svg">
<path d="M9.84375 18.6215C9.84375 18.8676 9.92578 19.1137 10.0488 19.3598L10.7461 20.3852C10.9512 20.7133 11.4434 21.0004 11.8535 21.0004H14.3555C14.7656 21.0004 15.2578 20.7133 15.4629 20.3852L16.1602 19.3598C16.2832 19.1137 16.3652 18.8676 16.3652 18.6215V17.0629H9.84375V18.6215ZM13.084 0.000385145C8.90039 0.000385145 5.90625 3.36367 5.90625 7.17812C5.90625 8.90078 6.52148 10.5824 7.66992 11.8949C8.36719 12.6742 9.39258 14.3148 9.80273 15.6684C9.80273 15.6684 9.80273 15.6684 9.80273 15.7094H16.4062C16.4062 15.6684 16.4062 15.6684 16.4062 15.6684C16.8164 14.3148 17.8418 12.6742 18.5391 11.8949C19.6875 10.5824 20.3438 8.90078 20.3438 7.17812C20.3438 3.1996 17.0625 -0.0406305 13.084 0.000385145ZM13.125 3.93789C11.2793 3.93789 9.84375 5.37343 9.84375 7.17812C9.84375 7.50624 9.51562 7.83437 9.1875 7.83437C8.81836 7.83437 8.53125 7.50624 8.53125 7.17812C8.53125 4.67617 10.582 2.62539 13.125 2.62539C13.4531 2.62539 13.7812 2.91249 13.7812 3.28164C13.7812 3.60976 13.4531 3.93789 13.125 3.93789ZM4.59375 7.83437C4.59375 7.30117 4.14258 6.84999 3.60938 6.84999H0.984375C0.410156 6.84999 0 7.30117 0 7.83437C0 8.40859 0.410156 8.81874 0.984375 8.81874H3.60938C4.14258 8.81874 4.59375 8.40859 4.59375 7.83437ZM25.2656 6.84999H22.6406C22.0664 6.84999 21.6562 7.30117 21.6562 7.83437C21.6562 8.40859 22.0664 8.81874 22.6406 8.81874H25.2656C25.7988 8.81874 26.25 8.40859 26.25 7.83437C26.25 7.30117 25.7988 6.84999 25.2656 6.84999ZM5.37305 2.25624L3.07617 0.943745C2.78906 0.738666 2.37891 0.738666 2.0918 0.902729C1.76367 1.10781 1.59961 1.43593 1.59961 1.76406C1.59961 2.1332 1.80469 2.46132 2.0918 2.62539L4.38867 3.93789C4.67578 4.14296 5.04492 4.14296 5.37305 3.9789C5.66016 3.77382 5.86523 3.4457 5.86523 3.11757C5.86523 2.74843 5.66016 2.42031 5.37305 2.25624ZM24.1172 13.0844L21.8203 11.7719C21.5332 11.5668 21.1641 11.5668 20.8359 11.7309C20.5488 11.9359 20.3438 12.2641 20.3438 12.5922C20.3438 12.9613 20.5488 13.2894 20.8359 13.4535L23.1328 14.766C23.584 15.0531 24.1992 14.8891 24.4453 14.3969C24.7324 13.9457 24.5684 13.3305 24.1172 13.0844ZM4.38867 11.7719L2.0918 13.0844C1.80469 13.2484 1.59961 13.5766 1.59961 13.9457C1.59961 14.2738 1.76367 14.6019 2.0918 14.807C2.37891 14.9711 2.78906 14.9711 3.07617 14.766L5.37305 13.4535C5.82422 13.2074 5.94727 12.5922 5.70117 12.141C5.45508 11.6488 4.83984 11.4848 4.38867 11.7719ZM21.3691 4.06093C21.5332 4.06093 21.6973 4.01992 21.8613 3.93789L24.1172 2.62539C24.5684 2.33828 24.7324 1.76406 24.4453 1.31289C24.1992 0.820698 23.584 0.656635 23.1328 0.943745L20.877 2.25624C20.4668 2.46132 20.3027 2.91249 20.3848 3.36367C20.5078 3.77382 20.918 4.06093 21.3691 4.06093Z" fill="#A4E0F3"/>
</svg>
