<svg width="431" height="284" viewBox="0 0 431 284" fill="none" xmlns="http://www.w3.org/2000/svg">
<g clip-path="url(#clip0_2_1429)">
<path d="M332.359 44.1513C331.589 40.6038 331.363 43.2171 329.689 39.9993C330.838 44.1574 328.718 42.7958 325.903 46.0562C306.114 49.1581 304.001 38.9186 296.678 39.1262C295.426 39.1262 297.845 32.353 297.839 31.0953C295.008 26.4687 296.064 13.373 299.017 16.9131C299.017 7.57132 306.59 0 315.935 0C324.547 0 331.656 6.43557 332.713 14.7577C333.067 17.542 333.507 20.308 334.032 23.0617L336.469 31.3291C339.896 37.9338 338.275 43.0655 332.359 44.1513Z" fill="#2F2E41"/>
<path d="M311.757 31.6159C318.608 31.6159 324.161 26.0642 324.161 19.2158C324.161 12.3674 318.608 6.8157 311.757 6.8157C304.907 6.8157 299.353 12.3674 299.353 19.2158C299.353 26.0642 304.907 31.6159 311.757 31.6159Z" fill="#A0616A"/>
<path d="M272.993 282.701C281.859 282.701 289.046 275.516 289.046 266.652C289.046 257.789 281.859 250.604 272.993 250.604C264.127 250.604 256.94 257.789 256.94 266.652C256.94 275.516 264.127 282.701 272.993 282.701Z" fill="#E6E6E6"/>
<path d="M121.523 61.4159C125.526 61.4159 128.771 58.1716 128.771 54.1695C128.771 50.1675 125.526 46.9232 121.523 46.9232C117.519 46.9232 114.274 50.1675 114.274 54.1695C114.274 58.1716 117.519 61.4159 121.523 61.4159Z" fill="#A4E0F3"/>
<path d="M121.548 101.104H121.522C117.281 100.936 113.215 100.359 109.415 99.3889L109.717 98.2059C113.435 99.1548 117.415 99.7192 121.547 99.8832L121.548 101.104ZM133.697 99.5099L133.38 98.3305C137.234 97.299 140.942 95.7606 144.402 93.7577L145.014 94.8143C141.461 96.8711 137.653 98.4509 133.697 99.5099ZM98.0168 94.913C94.4 92.9152 91.1022 90.4406 88.2151 87.5582L89.0781 86.6942C91.8847 89.4958 95.0907 91.9015 98.6073 93.8438L98.0168 94.913ZM154.727 87.3495L153.864 86.4861C156.691 83.6589 159.137 80.4748 161.134 77.0221L162.192 77.6333C160.141 81.1781 157.63 84.4472 154.727 87.3496L154.727 87.3495ZM80.8354 77.7716C78.8633 74.2319 77.3474 70.3987 76.3301 66.3784L77.5141 66.079C78.5057 69.9962 79.9819 73.7304 81.9025 77.1771L80.8355 77.7716H80.8354ZM166.884 66.314L165.704 65.9985C166.729 62.1609 167.249 58.1811 167.249 54.1694L167.249 54.0609H168.471L168.471 54.1643C168.471 58.2872 167.937 62.3732 166.884 66.314ZM75.1733 54.212L74.8187 54.1953C74.8187 50.0816 75.3194 46.0058 76.3069 42.068L77.492 42.365C76.5288 46.2059 76.0403 50.1818 76.0403 54.1822L75.1733 54.212ZM165.676 42.2356C164.638 38.386 163.092 34.682 161.082 31.2257L162.138 30.6121C164.202 34.1609 165.789 37.9645 166.855 41.9178L165.676 42.2356ZM81.8545 31.257L80.7856 30.6655C82.7912 27.0449 85.2647 23.7464 88.1384 20.8613L89.0038 21.7229C86.2104 24.5278 83.8049 27.7354 81.8545 31.257H81.8545ZM153.791 21.7804C150.957 18.9589 147.768 16.5189 144.311 14.5289L144.921 13.4705C148.469 15.5139 151.744 18.0186 154.653 20.9153L153.791 21.7804H153.791ZM98.5137 14.5474L97.9202 13.48C101.414 11.5386 105.245 10.0237 109.308 8.97728L109.612 10.1597C105.65 11.1802 101.916 12.6563 98.5137 14.5474H98.5137ZM133.276 9.98051C129.461 8.96924 125.507 8.45644 121.523 8.45644L121.465 8.45942L121.413 7.23945L121.497 7.23587H121.503C125.617 7.23587 129.674 7.76238 133.589 8.79989L133.276 9.98051Z" fill="#3F3D56"/>
<path d="M332.607 109.675H288.27C291.986 101.385 294.271 93.4896 290.699 87.2095L330.454 84.8717C328.011 98.9151 332.897 104.41 332.607 109.675Z" fill="#A0616A"/>
<path d="M332.763 269.123L326.83 269.263L323.523 242.616L332.278 242.409L332.763 269.123Z" fill="#A0616A"/>
<path d="M312.408 281.497C312.408 282.499 313.119 283.311 313.996 283.311H325.773C325.773 283.311 326.932 278.654 331.657 276.65L331.983 283.311H338.058L337.322 272.6C337.322 272.6 338.947 266.87 335.572 263.941C332.197 261.011 334.93 261.419 334.93 261.419L333.603 254.79L324.423 255.869L324.355 266.276L319.9 276.605L313.366 279.832C312.784 280.119 312.408 280.773 312.408 281.497L312.408 281.497H312.408Z" fill="#2F2E41"/>
<path d="M277.633 241.873L271.728 242.47L266.375 216.158L275.089 215.276L277.633 241.873Z" fill="#A0616A"/>
<path d="M258.293 255.78C258.37 256.779 259.142 257.534 260.017 257.466L271.758 256.558C271.758 256.558 272.554 251.826 277.11 249.463L277.949 256.079L284.006 255.611L282.446 244.989C282.446 244.989 283.624 239.15 280.033 236.49C276.442 233.83 279.199 234.025 279.199 234.025L277.364 227.518L268.295 229.302L269.03 239.683L265.385 250.325L259.119 254.046C258.562 254.377 258.237 255.058 258.293 255.78L258.293 255.78V255.78Z" fill="#2F2E41"/>
<path d="M328.483 105.129L332.84 106.582C339.654 119.162 342.543 135.868 342.16 156.013L334.419 246.492H321.755L312.487 145.695L307.571 149.82L279.043 173.758L278.174 221.458L266.217 222.677L254.961 172.468L288.834 106.142L328.483 105.129V105.129V105.129Z" fill="#2F2E41"/>
<path d="M336.699 45.584C335.79 42.8567 323.513 41.4931 323.513 41.4931L319.876 33.7658L306.235 34.6749L298.506 41.4931C298.506 41.4931 291.231 42.8567 290.322 45.584C289.412 48.3113 290.143 86.0929 290.143 86.0929L289.412 98.7658L330.334 97.8567L330.454 87.314C330.454 87.314 337.609 48.3113 336.699 45.584H336.699V45.584Z" fill="#E6E6E6"/>
<path d="M353.068 163.766C369.39 163.766 382.622 150.538 382.622 134.22C382.622 117.903 369.39 104.675 353.068 104.675C336.745 104.675 323.513 117.903 323.513 134.22C323.513 150.538 336.745 163.766 353.068 163.766Z" fill="#A4E0F3"/>
<path d="M353.067 144.958C352.609 144.958 352.18 144.727 351.928 144.342L344.425 132.924C344.012 132.294 344.187 131.448 344.817 131.035C345.447 130.622 346.292 130.797 346.705 131.426L352.987 140.987L362.569 124.226C362.942 123.572 363.775 123.344 364.429 123.718C365.084 124.092 365.311 124.925 364.937 125.579L354.252 144.27C354.017 144.682 353.584 144.942 353.11 144.957C353.096 144.958 353.082 144.958 353.067 144.958Z" fill="white"/>
<path d="M364.046 88.5352L368.624 101.544L371.035 126.205L365.351 126.276L359.651 105.024L348.664 77.5327L364.046 88.5352Z" fill="#A0616A"/>
<path d="M369.911 136.71C371.946 136.32 373.062 133.227 372.405 129.801C371.747 126.376 369.565 123.915 367.531 124.305C365.496 124.695 364.38 127.789 365.037 131.214C365.694 134.64 367.876 137.101 369.911 136.71Z" fill="#A0616A"/>
<path d="M330.442 43.8013C330.442 43.8013 338.523 40.6608 342.17 47.9948C345.817 55.3289 365.445 87.9724 365.445 87.9724L366.89 91.8929L355.367 96.9617L353.584 92.1257C353.584 92.1257 347.189 94.5462 346.785 90.8198C346.629 89.388 335.109 73.0889 332.152 64.6749C327.414 51.1904 330.442 43.8014 330.442 43.8014L330.442 43.8013Z" fill="#E6E6E6"/>
<path d="M386.827 273.232C388.089 273.311 388.786 271.744 387.831 270.831L387.736 270.453C387.749 270.423 387.761 270.393 387.774 270.362C389.05 267.321 393.375 267.342 394.64 270.388C395.763 273.092 397.193 275.8 397.545 278.659C397.702 279.921 397.631 281.206 397.351 282.445C399.982 276.699 401.367 270.425 401.367 264.115C401.367 262.529 401.28 260.944 401.103 259.363C400.957 258.069 400.756 256.783 400.495 255.51C399.087 248.624 396.038 242.066 391.639 236.588C389.525 235.432 387.761 233.626 386.696 231.461C386.314 230.68 386.014 229.84 385.872 228.984C386.112 229.016 386.779 225.352 386.598 225.127C386.933 224.619 387.533 224.366 387.899 223.869C389.721 221.401 392.23 221.832 393.541 225.187C396.339 226.599 396.366 228.941 394.649 231.193C393.557 232.626 393.406 234.565 392.448 236.099C392.546 236.225 392.649 236.347 392.748 236.473C394.556 238.792 396.12 241.285 397.439 243.903C397.066 240.993 397.616 237.487 398.554 235.227C399.622 232.652 401.624 230.483 403.386 228.257C405.503 225.584 409.844 226.75 410.217 230.14C410.22 230.173 410.224 230.206 410.227 230.238C409.966 230.386 409.709 230.543 409.459 230.709C408.03 231.653 408.524 233.868 410.217 234.129L410.255 234.135C410.16 235.077 409.998 236.012 409.762 236.931C412.023 245.672 407.142 248.856 400.172 248.999C400.018 249.077 399.868 249.156 399.714 249.231C400.42 251.219 400.985 253.258 401.403 255.324C401.777 257.15 402.038 258.996 402.184 260.849C402.365 263.188 402.349 265.538 402.152 267.873L402.164 267.79C402.665 265.219 404.062 262.817 406.089 261.153C409.11 258.672 413.377 257.759 416.636 255.765C418.205 254.805 420.215 256.046 419.941 257.864L419.928 257.951C419.443 258.148 418.969 258.377 418.512 258.633C418.25 258.781 417.993 258.937 417.743 259.103C416.314 260.048 416.808 262.262 418.501 262.523L418.539 262.529C418.567 262.533 418.59 262.537 418.618 262.541C417.786 264.517 416.626 266.351 415.174 267.932C413.76 275.563 407.689 276.287 401.194 274.065H401.19C400.48 277.156 399.442 280.177 398.109 283.056H387.103C387.063 282.934 387.028 282.808 386.992 282.685C388.01 282.749 389.036 282.689 390.038 282.504C389.221 281.502 388.404 280.493 387.588 279.491C387.568 279.471 387.552 279.452 387.536 279.432C387.122 278.919 386.704 278.41 386.29 277.898L386.29 277.897C386.264 276.323 386.452 274.755 386.826 273.232L386.827 273.232L386.827 273.232L386.827 273.232Z" fill="#F2F2F2"/>
<path d="M42.1437 277.817C41.4708 277.859 41.0989 277.023 41.608 276.536L41.6586 276.335L41.6385 276.287C40.958 274.665 38.6517 274.676 37.977 276.3C37.3782 277.742 36.6157 279.187 36.428 280.711C36.3438 281.384 36.3817 282.07 36.5311 282.73C35.1278 279.666 34.3894 276.32 34.3894 272.955C34.3894 272.109 34.4357 271.264 34.5304 270.421C34.6082 269.731 34.7155 269.045 34.8544 268.366C35.6054 264.694 37.2316 261.196 39.5773 258.275C40.7049 257.659 41.6453 256.696 42.2133 255.541C42.4173 255.124 42.5772 254.677 42.653 254.22C42.5247 254.237 42.1691 252.283 42.2659 252.163C42.0871 251.892 41.767 251.757 41.5717 251.492C40.6003 250.176 39.2619 250.406 38.5633 252.195C37.0708 252.948 37.0563 254.197 37.9721 255.398C38.5547 256.162 38.6348 257.196 39.146 258.014C39.0934 258.081 39.0387 258.147 38.9861 258.214C38.0217 259.451 37.1875 260.78 36.4843 262.176C36.683 260.624 36.3896 258.755 35.8894 257.549C35.32 256.176 34.2527 255.02 33.3128 253.832C32.1839 252.406 29.8689 253.029 29.67 254.836L29.6644 254.889C29.804 254.968 29.9408 255.051 30.0744 255.14C30.8364 255.643 30.573 256.824 29.6701 256.964L29.6497 256.967C29.7002 257.469 29.7864 257.968 29.9126 258.458C28.7069 263.119 31.31 264.817 35.0269 264.894C35.1089 264.936 35.1889 264.978 35.2709 265.018C34.8943 266.078 34.5935 267.165 34.3705 268.267C34.1706 269.241 34.0318 270.225 33.954 271.213C33.8572 272.461 33.8656 273.714 33.9708 274.959L33.9645 274.915C33.6973 273.544 32.9526 272.263 31.8712 271.375C30.2604 270.052 27.9845 269.565 26.2467 268.502C25.4101 267.99 24.3382 268.652 24.4842 269.621L24.4913 269.668C24.75 269.773 25.0025 269.895 25.2465 270.031C25.3861 270.11 25.5229 270.194 25.6565 270.282C26.4185 270.786 26.1551 271.967 25.2522 272.106L25.2318 272.109L25.1897 272.116C25.6336 273.169 26.2521 274.147 27.0263 274.991C27.7802 279.06 31.0183 279.446 34.482 278.261H34.4841C34.8628 279.91 35.4161 281.521 36.1272 283.056H41.9966C42.0177 282.991 42.0366 282.924 42.0555 282.858C41.5128 282.892 40.9658 282.86 40.4314 282.762C40.8669 282.227 41.3024 281.689 41.7379 281.155C41.7484 281.144 41.7568 281.134 41.7652 281.123C41.9861 280.85 42.2091 280.579 42.43 280.305L42.4301 280.305C42.4439 279.466 42.3433 278.629 42.1439 277.817L42.1437 277.817L42.1437 277.817L42.1437 277.817Z" fill="#F2F2F2"/>
<path d="M0 283.273C0 283.676 0.323725 284 0.726849 284H430.273C430.676 284 431 283.676 431 283.273C431 282.87 430.676 282.547 430.273 282.547H0.726849C0.323725 282.547 0 282.87 0 283.273Z" fill="#CCCCCC"/>
<path d="M276.096 95.8622L275.947 108.227L280.304 132.618L285.796 131.149L285.528 109.148L288.66 79.7093L276.096 95.8622Z" fill="#A0616A"/>
<path d="M284.232 142.428C286.296 142.253 287.73 139.293 287.435 135.817C287.14 132.342 285.228 129.666 283.164 129.841C281.099 130.016 279.665 132.976 279.96 136.451C280.255 139.927 282.167 142.603 284.232 142.428Z" fill="#A0616A"/>
<path d="M297.066 42.3061C297.066 42.3061 288.437 41.4697 286.912 49.5171C285.387 57.5644 275.332 94.301 275.332 94.301L275.003 98.4662L287.469 100.227L287.875 95.089C287.875 95.089 294.687 95.6884 294.067 91.9917C293.447 88.295 297.066 42.3061 297.066 42.3061V42.3061Z" fill="#E6E6E6"/>
<path d="M295.012 17.9231C294.843 9.05462 300.632 1.41552 308.395 4.5443H310.92C318.308 4.55263 330.935 14.9987 326.049 22.3257C319.33 16.8305 321.464 44.4784 314.497 46.0231C314.439 46.7289 312.352 45.7608 312.317 45.0535L319.475 23.5616C319.137 19.9848 318.355 16.4641 317.146 13.0807L316.94 20.9892L314.024 18.1756C311.648 18.2371 310.926 14.2478 307.027 17.1252C303.127 20.0026 298.971 17.2188 295.012 18.1756V17.9231H295.012Z" fill="#2F2E41"/>
</g>
<defs>
<clipPath id="clip0_2_1429">
<rect width="431" height="284" fill="white"/>
</clipPath>
</defs>
</svg>
